<svg width="64" height="64" fill="none" xmlns="http://www.w3.org/2000/svg"><path d="M32 0C14.354 0 0 14.355 0 32s14.354 32 32 32 32-14.355 32-32S49.646 0 32 0zm0 61.333C15.825 61.333 2.667 48.175 2.667 32 2.667 15.825 15.826 2.667 32 2.667c16.175 0 29.333 13.159 29.333 29.333 0 16.175-13.158 29.333-29.333 29.333z" fill="#fff" fill-opacity=".81"/><path d="M44.721 30.879l-18.666-12A1.331 1.331 0 0024 20v24a1.332 1.332 0 002.055 1.121l18.666-12a1.336 1.336 0 000-2.242zM26.667 41.557V22.443L41.534 32l-14.867 9.557z" fill="#fff" fill-opacity=".81"/></svg>