<svg width="111" height="36" fill="none" xmlns="http://www.w3.org/2000/svg"><path d="M15.264 35.768c-2.784 0-5.504-.304-8.16-.912-2.624-.64-4.784-1.488-6.48-2.544l3.648-8.256c1.6.928 3.392 1.68 5.376 2.256 1.984.544 3.888.816 5.712.816 1.568 0 2.688-.144 3.36-.432.672-.32 1.008-.784 1.008-1.392 0-.704-.448-1.232-1.344-1.584-.864-.352-2.304-.736-4.32-1.152-2.592-.544-4.752-1.12-6.48-1.728-1.728-.64-3.232-1.664-4.512-3.072-1.28-1.44-1.92-3.376-1.92-5.808 0-2.112.592-4.032 1.776-5.76 1.184-1.728 2.944-3.088 5.28-4.08C10.576 1.128 13.44.632 16.8.632c2.304 0 4.56.256 6.768.768 2.24.48 4.208 1.2 5.904 2.16l-3.408 8.208c-3.296-1.664-6.416-2.496-9.36-2.496-2.912 0-4.368.704-4.368 2.112 0 .672.432 1.184 1.296 1.536.864.32 2.288.672 4.272 1.056 2.56.48 4.72 1.04 6.48 1.68 1.76.608 3.28 1.616 4.56 3.024 1.312 1.408 1.968 3.328 1.968 5.76 0 2.112-.592 4.032-1.776 5.76-1.184 1.696-2.96 3.056-5.328 4.08-2.336.992-5.184 1.488-8.544 1.488zm36.347 0c-2.784 0-5.504-.304-8.16-.912-2.624-.64-4.784-1.488-6.48-2.544l3.648-8.256c1.6.928 3.392 1.68 5.376 2.256 1.984.544 3.888.816 5.712.816 1.568 0 2.688-.144 3.36-.432.672-.32 1.008-.784 1.008-1.392 0-.704-.448-1.232-1.344-1.584-.864-.352-2.304-.736-4.32-1.152-2.592-.544-4.752-1.12-6.48-1.728-1.728-.64-3.232-1.664-4.512-3.072-1.28-1.44-1.92-3.376-1.92-5.808 0-2.112.592-4.032 1.776-5.76 1.184-1.728 2.944-3.088 5.28-4.08 2.368-.992 5.232-1.488 8.592-1.488 2.304 0 4.56.256 6.768.768 2.24.48 4.208 1.2 5.904 2.16l-3.408 8.208c-3.296-1.664-6.416-2.496-9.36-2.496-2.912 0-4.368.704-4.368 2.112 0 .672.432 1.184 1.296 1.536.864.32 2.288.672 4.272 1.056 2.56.48 4.72 1.04 6.48 1.68 1.76.608 3.28 1.616 4.56 3.024 1.312 1.408 1.968 3.328 1.968 5.76 0 2.112-.592 4.032-1.776 5.76-1.184 1.696-2.96 3.056-5.328 4.08-2.336.992-5.184 1.488-8.544 1.488zM75.43 1.4h16.56c3.744 0 7.04.688 9.888 2.064 2.88 1.344 5.104 3.28 6.672 5.808 1.6 2.528 2.4 5.504 2.4 8.928 0 3.424-.8 6.4-2.4 8.928-1.568 2.528-3.792 4.48-6.672 5.856C99.03 34.328 95.734 35 91.99 35H75.43V1.4zm16.08 24.768c2.432 0 4.368-.688 5.808-2.064 1.472-1.408 2.208-3.376 2.208-5.904s-.736-4.48-2.208-5.856c-1.44-1.408-3.376-2.112-5.808-2.112h-4.752v15.936h4.752z" fill="url(#paint0_linear)"/><defs><linearGradient id="paint0_linear" x1="-16.5" y1="18" x2="113" y2="18" gradientUnits="userSpaceOnUse"><stop stop-color="#61D8FD"/><stop offset="1" stop-color="#FF592B" stop-opacity=".27"/></linearGradient></defs></svg>