<svg width="84" height="27" fill="none" xmlns="http://www.w3.org/2000/svg"><path d="M11.446 26.576c-2.088 0-4.128-.229-6.12-.684-1.968-.48-3.588-1.116-4.86-1.909l2.736-6.192c1.2.697 2.544 1.26 4.032 1.692 1.488.409 2.916.613 4.284.613 1.176 0 2.016-.108 2.52-.325.504-.24.756-.588.756-1.044 0-.527-.336-.924-1.008-1.188-.648-.264-1.728-.552-3.24-.864-1.944-.408-3.564-.84-4.86-1.296a8.522 8.522 0 01-3.384-2.303c-.96-1.08-1.44-2.533-1.44-4.356 0-1.584.444-3.024 1.332-4.32.888-1.296 2.208-2.316 3.96-3.06C7.93.596 10.078.224 12.598.224c1.728 0 3.42.192 5.076.576 1.68.36 3.156.9 4.428 1.62l-2.556 6.156c-2.472-1.248-4.812-1.872-7.02-1.872-2.184 0-3.276.528-3.276 1.584 0 .504.324.888.972 1.152.648.24 1.716.504 3.204.792 1.92.36 3.54.78 4.86 1.26a8.161 8.161 0 013.42 2.267c.984 1.056 1.476 2.497 1.476 4.32a7.473 7.473 0 01-1.332 4.32c-.888 1.273-2.22 2.293-3.996 3.06-1.752.744-3.888 1.117-6.408 1.117zm27.26 0c-2.088 0-4.128-.229-6.12-.684-1.968-.48-3.588-1.116-4.86-1.909l2.736-6.192c1.2.697 2.544 1.26 4.032 1.692 1.488.409 2.916.613 4.284.613 1.176 0 2.016-.108 2.52-.325.504-.24.756-.588.756-1.044 0-.527-.336-.924-1.008-1.188-.648-.264-1.728-.552-3.24-.864-1.944-.408-3.564-.84-4.86-1.296a8.522 8.522 0 01-3.384-2.303c-.96-1.08-1.44-2.533-1.44-4.356 0-1.584.444-3.024 1.332-4.32.888-1.296 2.208-2.316 3.96-3.06C35.19.596 37.338.224 39.858.224c1.728 0 3.42.192 5.076.576 1.68.36 3.156.9 4.428 1.62l-2.556 6.156c-2.472-1.248-4.812-1.872-7.02-1.872-2.184 0-3.276.528-3.276 1.584 0 .504.324.888.972 1.152.648.24 1.716.504 3.204.792 1.92.36 3.54.78 4.86 1.26a8.161 8.161 0 013.42 2.267c.984 1.056 1.476 2.497 1.476 4.32a7.473 7.473 0 01-1.332 4.32c-.888 1.273-2.22 2.293-3.996 3.06-1.752.744-3.888 1.117-6.408 1.117zM56.57.8h12.42c2.808 0 5.28.516 7.416 1.548 2.16 1.008 3.828 2.46 5.004 4.356 1.2 1.896 1.8 4.128 1.8 6.696 0 2.567-.6 4.8-1.8 6.696-1.176 1.895-2.844 3.36-5.004 4.392C74.27 25.495 71.798 26 68.99 26H56.57V.8zm12.06 18.575c1.824 0 3.276-.515 4.356-1.547 1.104-1.056 1.656-2.532 1.656-4.428s-.552-3.36-1.656-4.392c-1.08-1.056-2.532-1.584-4.356-1.584h-3.564v11.951h3.564z" fill="#FD8361"/></svg>