<svg width="154" height="147" fill="none" xmlns="http://www.w3.org/2000/svg"><path d="M143.234 111.296a1.06 1.06 0 01-1.062-1.035 1.075 1.075 0 01.122-.527c.402-.761.792-1.529 1.17-2.305a1.063 1.063 0 011.425-.492 1.068 1.068 0 01.492 1.425 79.52 79.52 0 01-1.201 2.367 1.064 1.064 0 01-.946.567zm4.274-9.576a1.07 1.07 0 01-1.057-.93 1.068 1.068 0 01.057-.504 77.277 77.277 0 004.753-26.786 1.068 1.068 0 011.066-1.065 1.066 1.066 0 011.065 1.065 79.42 79.42 0 01-4.887 27.521 1.07 1.07 0 01-.997.699zM32.645 7.175a1.065 1.065 0 01-.554-1.975 82.95 82.95 0 012.13-1.25 1.065 1.065 0 011.051 1.853c-.697.395-1.388.8-2.073 1.217a1.065 1.065 0 01-.554.155zM6.852 32.513a1.064 1.064 0 01-.9-1.637 80.255 80.255 0 0118.64-20.51 1.066 1.066 0 011.306 1.684A78.122 78.122 0 007.75 32.018a1.064 1.064 0 01-.9.495z" fill="#00274E"/><path d="M73.5 145.935c40.005 0 72.435-32.43 72.435-72.435S113.505 1.065 73.5 1.065 1.065 33.495 1.065 73.5s32.43 72.435 72.435 72.435z" fill="#57C3FF"/><path d="M73.5 147A73.502 73.502 0 011.412 59.16 73.5 73.5 0 01147 73.5 73.583 73.583 0 0173.5 147zm0-144.87a71.37 71.37 0 1071.37 71.37A71.452 71.452 0 0073.5 2.13z" fill="#00274E"/><path d="M120.332 49.474l.495-.495-.495-.495-13.827-13.827-.495-.495-.495.495-48.526 48.527-15.505-15.505-.495-.495-.495.495-13.826 13.826-.495.495.495.495 29.804 29.847.495.496.496-.495 62.869-62.87z" fill="#fff" stroke="#00274E" stroke-width="1.4"/><path d="M73.5 147A73.502 73.502 0 011.412 59.16 73.5 73.5 0 01147 73.5 73.583 73.583 0 0173.5 147zm0-144.87a71.37 71.37 0 1071.37 71.37A71.452 71.452 0 0073.5 2.13z" fill="#00274E"/><path d="M110.476 11.213a72.438 72.438 0 0116.928 98.285 72.437 72.437 0 01-97.269 22.029 72.437 72.437 0 00113.957-74.06 72.449 72.449 0 00-33.616-46.254zM99.133 19.13c.028-.082.054-.165.075-.25a3.752 3.752 0 00-2.392-4.346 15.906 15.906 0 00-3.262-.963 2.983 2.983 0 00-3.73 2.543 3.762 3.762 0 002.816 4.091c.88.147 1.738.4 2.556.756a3.003 3.003 0 003.938-1.832zm-15.257-2.562c.151-.373.232-.77.239-1.174a3.756 3.756 0 00-3.23-3.768 64.39 64.39 0 00-41.013 9.237 3.35 3.35 0 00-.64 4.687 3.384 3.384 0 004.628 1.091 59.299 59.299 0 0136.876-8.247 2.964 2.964 0 003.14-1.826z" fill="#3C6B96"/></svg>