<svg version="1.0" xmlns="http://www.w3.org/2000/svg" width="106.667" height="106.667" viewBox="0 0 80 80"><path d="M32.3 1.1c-18 3.3-27.3 18-20.4 32.2 4.6 9.4 14.5 13.8 32.2 14.2 8 .2 12.4.7 14.5 1.8l2.9 1.5-2.5 1.1c-1.4.6-5.2 2.1-8.5 3.5l-6 2.4.2 6.1c.1 3.5-.3 6.1-.8 6.1-2.4 0-5-2.4-7-6.3-3.7-7.4-6.7-10.6-10.4-11.3-3.3-.6-9.5 1-9.5 2.5-.1.3-2.3 3.1-5 6.1l-5 5.5 2.3 1.8c14.4 11.4 41.5 14.1 54.2 5.3 7.1-4.9 10.5-11.5 10.1-19.7-.5-9.4-5.9-16.7-14.8-19.9-4.3-1.6-5.4-1-3.8 1.9 1.8 3.5-1.4 2.6-6-1.5-3-2.7-5.7-4.1-10.3-5.1-6.2-1.4-12.7-6-12.7-9 0-2.9 6.5-4.5 19.4-4.5 7.6.1 9.4-.3 12.7-2.3 2-1.3 4.9-2.7 6.3-3.1 4-1 3.9-2-.2-4.4-7.8-4.7-21.6-6.8-31.9-4.9z"/></svg>