<svg width="64" height="64" viewBox="0 0 64 64" fill="none" xmlns="http://www.w3.org/2000/svg">
<path d="M32 0C14.3541 0 0 14.3555 0 32C0 49.6445 14.3541 64 32 64C49.6459 64 64 49.6445 64 32C64 14.3555 49.6459 0 32 0ZM32 61.3334C15.8255 61.3334 2.66663 48.1745 2.66663 32C2.66663 15.8255 15.8255 2.66663 32 2.66663C48.1745 2.66663 61.3334 15.8255 61.3334 32C61.3334 48.1745 48.1745 61.3334 32 61.3334Z" fill="white" fill-opacity="0.81"/>
<path d="M44.7214 30.8789L26.0548 18.8789C25.6459 18.612 25.1173 18.5976 24.6954 18.8294C24.2656 19.0637 24 19.5117 24 20V44C24 44.4882 24.2656 44.9362 24.6954 45.1706C24.8933 45.2787 25.1146 45.3334 25.3334 45.3334C25.5834 45.3334 25.836 45.263 26.0548 45.1211L44.7214 33.1211C45.1016 32.8764 45.3334 32.4531 45.3334 32C45.3334 31.5469 45.1016 31.1237 44.7214 30.8789ZM26.6666 41.5572V22.4427L41.5339 32L26.6666 41.5572Z" fill="white" fill-opacity="0.81"/>
</svg>
