<svg width="84" height="27" viewBox="0 0 84 27" fill="none" xmlns="http://www.w3.org/2000/svg">
<path d="M11.4459 26.5755C9.35786 26.5755 7.31786 26.3475 5.32586 25.8915C3.35786 25.4115 1.73786 24.7755 0.465864 23.9835L3.20186 17.7915C4.40186 18.4875 5.74586 19.0515 7.23386 19.4835C8.72186 19.8915 10.1499 20.0955 11.5179 20.0955C12.6939 20.0955 13.5339 19.9875 14.0379 19.7715C14.5419 19.5315 14.7939 19.1835 14.7939 18.7275C14.7939 18.1995 14.4579 17.8035 13.7859 17.5395C13.1379 17.2755 12.0579 16.9875 10.5459 16.6755C8.60186 16.2675 6.98186 15.8355 5.68586 15.3795C4.38986 14.8995 3.26186 14.1315 2.30186 13.0755C1.34186 11.9955 0.861864 10.5435 0.861864 8.71951C0.861864 7.13551 1.30586 5.69551 2.19386 4.39951C3.08186 3.10351 4.40186 2.08351 6.15386 1.33951C7.92986 0.59551 10.0779 0.223511 12.5979 0.223511C14.3259 0.223511 16.0179 0.415511 17.6739 0.79951C19.3539 1.15951 20.8299 1.69951 22.1019 2.41951L19.5459 8.57551C17.0739 7.32751 14.7339 6.70351 12.5259 6.70351C10.3419 6.70351 9.24986 7.23151 9.24986 8.28751C9.24986 8.79151 9.57386 9.17551 10.2219 9.43951C10.8699 9.67951 11.9379 9.94351 13.4259 10.2315C15.3459 10.5915 16.9659 11.0115 18.2859 11.4915C19.6059 11.9475 20.7459 12.7035 21.7059 13.7595C22.6899 14.8155 23.1819 16.2555 23.1819 18.0795C23.1819 19.6635 22.7379 21.1035 21.8499 22.3995C20.9619 23.6715 19.6299 24.6915 17.8539 25.4595C16.1019 26.2035 13.9659 26.5755 11.4459 26.5755ZM38.706 26.5755C36.618 26.5755 34.578 26.3475 32.586 25.8915C30.618 25.4115 28.998 24.7755 27.726 23.9835L30.462 17.7915C31.662 18.4875 33.006 19.0515 34.494 19.4835C35.982 19.8915 37.41 20.0955 38.778 20.0955C39.954 20.0955 40.794 19.9875 41.298 19.7715C41.802 19.5315 42.054 19.1835 42.054 18.7275C42.054 18.1995 41.718 17.8035 41.046 17.5395C40.398 17.2755 39.318 16.9875 37.806 16.6755C35.862 16.2675 34.242 15.8355 32.946 15.3795C31.65 14.8995 30.522 14.1315 29.562 13.0755C28.602 11.9955 28.122 10.5435 28.122 8.71951C28.122 7.13551 28.566 5.69551 29.454 4.39951C30.342 3.10351 31.662 2.08351 33.414 1.33951C35.19 0.59551 37.338 0.223511 39.858 0.223511C41.586 0.223511 43.278 0.415511 44.934 0.79951C46.614 1.15951 48.09 1.69951 49.362 2.41951L46.806 8.57551C44.334 7.32751 41.994 6.70351 39.786 6.70351C37.602 6.70351 36.51 7.23151 36.51 8.28751C36.51 8.79151 36.834 9.17551 37.482 9.43951C38.13 9.67951 39.198 9.94351 40.686 10.2315C42.606 10.5915 44.226 11.0115 45.546 11.4915C46.866 11.9475 48.006 12.7035 48.966 13.7595C49.95 14.8155 50.442 16.2555 50.442 18.0795C50.442 19.6635 49.998 21.1035 49.11 22.3995C48.222 23.6715 46.89 24.6915 45.114 25.4595C43.362 26.2035 41.226 26.5755 38.706 26.5755ZM56.5702 0.79951H68.9902C71.7982 0.79951 74.2702 1.31551 76.4062 2.34751C78.5662 3.35551 80.2342 4.80751 81.4102 6.70351C82.6102 8.59951 83.2102 10.8315 83.2102 13.3995C83.2102 15.9675 82.6102 18.1995 81.4102 20.0955C80.2342 21.9915 78.5662 23.4555 76.4062 24.4875C74.2702 25.4955 71.7982 25.9995 68.9902 25.9995H56.5702V0.79951ZM68.6302 19.3755C70.4542 19.3755 71.9062 18.8595 72.9862 17.8275C74.0902 16.7715 74.6422 15.2955 74.6422 13.3995C74.6422 11.5035 74.0902 10.0395 72.9862 9.00751C71.9062 7.95151 70.4542 7.42351 68.6302 7.42351H65.0662V19.3755H68.6302Z" fill="#FD8361"/>
</svg>
