<svg width="111" height="36" viewBox="0 0 111 36" fill="none" xmlns="http://www.w3.org/2000/svg">
<path d="M15.264 35.768C12.48 35.768 9.76 35.464 7.104 34.856C4.48 34.216 2.32 33.368 0.624 32.312L4.272 24.056C5.872 24.984 7.664 25.736 9.648 26.312C11.632 26.856 13.536 27.128 15.36 27.128C16.928 27.128 18.048 26.984 18.72 26.696C19.392 26.376 19.728 25.912 19.728 25.304C19.728 24.6 19.28 24.072 18.384 23.72C17.52 23.368 16.08 22.984 14.064 22.568C11.472 22.024 9.312 21.448 7.584 20.84C5.856 20.2 4.352 19.176 3.072 17.768C1.792 16.328 1.152 14.392 1.152 11.96C1.152 9.848 1.744 7.928 2.928 6.2C4.112 4.472 5.872 3.112 8.208 2.12C10.576 1.128 13.44 0.631999 16.8 0.631999C19.104 0.631999 21.36 0.887999 23.568 1.4C25.808 1.88 27.776 2.6 29.472 3.56L26.064 11.768C22.768 10.104 19.648 9.272 16.704 9.272C13.792 9.272 12.336 9.976 12.336 11.384C12.336 12.056 12.768 12.568 13.632 12.92C14.496 13.24 15.92 13.592 17.904 13.976C20.464 14.456 22.624 15.016 24.384 15.656C26.144 16.264 27.664 17.272 28.944 18.68C30.256 20.088 30.912 22.008 30.912 24.44C30.912 26.552 30.32 28.472 29.136 30.2C27.952 31.896 26.176 33.256 23.808 34.28C21.472 35.272 18.624 35.768 15.264 35.768ZM51.6109 35.768C48.8269 35.768 46.1069 35.464 43.4509 34.856C40.8269 34.216 38.6669 33.368 36.9709 32.312L40.6189 24.056C42.2189 24.984 44.0109 25.736 45.9949 26.312C47.9789 26.856 49.8829 27.128 51.7069 27.128C53.2749 27.128 54.3949 26.984 55.0669 26.696C55.7389 26.376 56.0749 25.912 56.0749 25.304C56.0749 24.6 55.6269 24.072 54.7309 23.72C53.8669 23.368 52.4269 22.984 50.4109 22.568C47.8189 22.024 45.6589 21.448 43.9309 20.84C42.2029 20.2 40.6989 19.176 39.4189 17.768C38.1389 16.328 37.4989 14.392 37.4989 11.96C37.4989 9.848 38.0909 7.928 39.2749 6.2C40.4589 4.472 42.2189 3.112 44.5549 2.12C46.9229 1.128 49.7869 0.631999 53.1469 0.631999C55.4509 0.631999 57.7069 0.887999 59.9149 1.4C62.1549 1.88 64.1229 2.6 65.8189 3.56L62.4109 11.768C59.1149 10.104 55.9949 9.272 53.0509 9.272C50.1389 9.272 48.6829 9.976 48.6829 11.384C48.6829 12.056 49.1149 12.568 49.9789 12.92C50.8429 13.24 52.2669 13.592 54.2509 13.976C56.8109 14.456 58.9709 15.016 60.7309 15.656C62.4909 16.264 64.0109 17.272 65.2909 18.68C66.6029 20.088 67.2589 22.008 67.2589 24.44C67.2589 26.552 66.6669 28.472 65.4829 30.2C64.2989 31.896 62.5229 33.256 60.1549 34.28C57.8189 35.272 54.9709 35.768 51.6109 35.768ZM75.4297 1.4H91.9897C95.7338 1.4 99.0298 2.088 101.878 3.464C104.758 4.808 106.982 6.744 108.55 9.272C110.15 11.8 110.95 14.776 110.95 18.2C110.95 21.624 110.15 24.6 108.55 27.128C106.982 29.656 104.758 31.608 101.878 32.984C99.0298 34.328 95.7338 35 91.9897 35H75.4297V1.4ZM91.5097 26.168C93.9417 26.168 95.8777 25.48 97.3177 24.104C98.7897 22.696 99.5257 20.728 99.5257 18.2C99.5257 15.672 98.7897 13.72 97.3177 12.344C95.8777 10.936 93.9417 10.232 91.5097 10.232H86.7577V26.168H91.5097Z" fill="url(#paint0_linear)"/>
<defs>
<linearGradient id="paint0_linear" x1="-16.5" y1="18" x2="113" y2="18" gradientUnits="userSpaceOnUse">
<stop stop-color="#61D8FD"/>
<stop offset="1" stop-color="#FF592B" stop-opacity="0.27"/>
</linearGradient>
</defs>
</svg>
