<svg width="154" height="147" viewBox="0 0 154 147" fill="none" xmlns="http://www.w3.org/2000/svg">
<path d="M143.234 111.296C143.05 111.296 142.87 111.248 142.711 111.157C142.552 111.067 142.418 110.937 142.324 110.78C142.229 110.623 142.177 110.444 142.172 110.261C142.167 110.078 142.209 109.897 142.294 109.734C142.696 108.973 143.086 108.205 143.464 107.429C143.587 107.175 143.807 106.98 144.074 106.888C144.342 106.796 144.635 106.813 144.889 106.937C145.143 107.061 145.338 107.281 145.43 107.548C145.523 107.815 145.505 108.108 145.381 108.362C144.993 109.159 144.593 109.948 144.18 110.729C144.089 110.901 143.952 111.045 143.786 111.145C143.619 111.245 143.428 111.297 143.234 111.296Z" fill="#00274E"/>
<path d="M147.508 101.72C147.336 101.72 147.167 101.678 147.015 101.599C146.863 101.519 146.732 101.404 146.634 101.264C146.536 101.123 146.473 100.96 146.451 100.79C146.429 100.62 146.449 100.447 146.508 100.286C149.664 91.7085 151.273 82.6395 151.261 73.5C151.261 73.2175 151.374 72.9466 151.573 72.7468C151.773 72.547 152.044 72.4348 152.327 72.4348C152.609 72.4348 152.88 72.547 153.08 72.7468C153.28 72.9466 153.392 73.2175 153.392 73.5C153.403 82.8905 151.748 92.2084 148.505 101.021C148.43 101.225 148.294 101.402 148.116 101.527C147.938 101.652 147.725 101.719 147.508 101.72Z" fill="#00274E"/>
<path d="M32.6452 7.17527C32.4129 7.17521 32.187 7.0992 32.0019 6.95882C31.8168 6.81845 31.6826 6.62141 31.6199 6.39772C31.5572 6.17404 31.5693 5.93597 31.6544 5.71981C31.7395 5.50364 31.8929 5.32123 32.0913 5.20036C32.793 4.77427 33.5031 4.35742 34.2218 3.94979C34.4674 3.81291 34.7572 3.77871 35.0279 3.85464C35.2987 3.93057 35.5284 4.11047 35.6671 4.35512C35.8057 4.59976 35.842 4.8893 35.768 5.16059C35.694 5.43187 35.5157 5.6629 35.2721 5.80327C34.5747 6.19811 33.8837 6.60361 33.1992 7.01975C33.0323 7.12142 32.8407 7.17522 32.6452 7.17527Z" fill="#00274E"/>
<path d="M6.85161 32.5126C6.66084 32.5126 6.47358 32.4613 6.3094 32.3641C6.14522 32.267 6.01014 32.1276 5.91827 31.9604C5.8264 31.7932 5.78112 31.6044 5.78715 31.4137C5.79319 31.223 5.85031 31.0375 5.95256 30.8764C10.9292 23.0107 17.2363 16.0707 24.5917 10.3667C24.8152 10.1974 25.0965 10.123 25.3745 10.1597C25.6524 10.1964 25.9048 10.3412 26.0767 10.5627C26.2486 10.7842 26.3262 11.0646 26.2927 11.343C26.2592 11.6214 26.1172 11.8754 25.8977 12.0498C18.7363 17.603 12.5957 24.36 7.75065 32.0183C7.65452 32.1698 7.52172 32.2944 7.36455 32.3808C7.20739 32.4672 7.03095 32.5126 6.85161 32.5126Z" fill="#00274E"/>
<path d="M73.5 145.935C113.505 145.935 145.935 113.505 145.935 73.5C145.935 33.4953 113.505 1.06519 73.5 1.06519C33.4953 1.06519 1.06519 33.4953 1.06519 73.5C1.06519 113.505 33.4953 145.935 73.5 145.935Z" fill="#57C3FF"/>
<path d="M73.5 147C58.9631 147 44.7526 142.689 32.6656 134.613C20.5786 126.537 11.1579 115.058 5.59489 101.627C0.0318465 88.1969 -1.4237 73.4185 1.41231 59.1609C4.24833 44.9033 11.2485 31.8068 21.5277 21.5277C31.8068 11.2485 44.9033 4.24833 59.1609 1.41231C73.4185 -1.4237 88.1969 0.0318465 101.627 5.59489C115.058 11.1579 126.537 20.5786 134.613 32.6656C142.689 44.7526 147 58.9631 147 73.5C146.978 92.9867 139.227 111.669 125.448 125.448C111.669 139.227 92.9867 146.978 73.5 147ZM73.5 2.13047C59.3845 2.13047 45.5859 6.31622 33.8492 14.1584C22.1126 22.0006 12.9649 33.147 7.56315 46.1881C2.16136 59.2292 0.748003 73.5792 3.50181 87.4235C6.25562 101.268 13.0529 113.985 23.0341 123.966C33.0153 133.947 45.7322 140.744 59.5765 143.498C73.4208 146.252 87.7709 144.839 100.812 139.437C113.853 134.035 124.999 124.887 132.842 113.151C140.684 101.414 144.87 87.6156 144.87 73.5C144.848 54.5782 137.322 36.4375 123.942 23.0578C110.562 9.67805 92.4218 2.15189 73.5 2.13047Z" fill="#00274E"/>
<path d="M120.332 49.4737L120.827 48.9787L120.332 48.4838L106.505 34.6572L106.01 34.1623L105.515 34.6572L56.9889 83.1836L41.4843 67.679L40.9894 67.184L40.4944 67.679L26.6679 81.5055L26.1732 82.0001L26.6675 82.4951L56.4723 112.342L56.9673 112.838L57.4626 112.343L120.332 49.4737Z" fill="white" stroke="#00274E" stroke-width="1.4"/>
<path d="M73.5 147C58.9631 147 44.7526 142.689 32.6656 134.613C20.5786 126.537 11.1579 115.058 5.59489 101.627C0.0318465 88.1969 -1.4237 73.4185 1.41231 59.1609C4.24833 44.9033 11.2485 31.8068 21.5277 21.5277C31.8068 11.2485 44.9033 4.24833 59.1609 1.41231C73.4185 -1.4237 88.1969 0.0318465 101.627 5.59489C115.058 11.1579 126.537 20.5786 134.613 32.6656C142.689 44.7526 147 58.9631 147 73.5C146.978 92.9867 139.227 111.669 125.448 125.448C111.669 139.227 92.9867 146.978 73.5 147ZM73.5 2.13047C59.3845 2.13047 45.5859 6.31622 33.8492 14.1584C22.1126 22.0006 12.9649 33.147 7.56315 46.1881C2.16136 59.2292 0.748003 73.5792 3.50181 87.4235C6.25562 101.268 13.0529 113.985 23.0341 123.966C33.0153 133.947 45.7322 140.744 59.5765 143.498C73.4208 146.252 87.7709 144.839 100.812 139.437C113.853 134.035 124.999 124.887 132.842 113.151C140.684 101.414 144.87 87.6156 144.87 73.5C144.848 54.5782 137.322 36.4375 123.942 23.0578C110.562 9.67805 92.4218 2.15189 73.5 2.13047Z" fill="#00274E"/>
<path d="M110.476 11.2125C125.35 22.3084 135.399 38.6899 138.549 56.9778C141.698 75.2656 137.709 94.0649 127.404 109.498C117.099 124.93 101.263 135.819 83.1645 139.918C65.0657 144.017 46.084 141.013 30.135 131.527C38.0144 137.404 47.0078 141.617 56.5675 143.908C66.1272 146.198 76.053 146.519 85.7407 144.85C95.4283 143.182 104.675 139.559 112.917 134.202C121.16 128.845 128.226 121.867 133.685 113.692C139.144 105.517 142.882 96.3159 144.671 86.6498C146.46 76.9837 146.263 67.0546 144.092 57.4672C141.92 47.8797 137.82 38.8345 132.041 30.8825C126.262 22.9304 118.924 16.2379 110.476 11.2125Z" fill="#3C6B96"/>
<path d="M99.1335 19.1291C99.1612 19.0481 99.1867 18.965 99.208 18.8798C99.4066 17.9883 99.2731 17.055 98.8327 16.2549C98.3922 15.4548 97.675 14.8428 96.8155 14.5337C95.7659 14.0971 94.6724 13.7743 93.5539 13.5708C93.1398 13.4606 92.7069 13.4409 92.2846 13.513C91.8622 13.5852 91.4604 13.7475 91.1065 13.9888C90.7525 14.2302 90.4546 14.545 90.2332 14.9118C90.0119 15.2786 89.8721 15.6888 89.8235 16.1145C89.716 17.0221 89.9426 17.9377 90.4609 18.6904C90.9792 19.4432 91.7537 19.9815 92.6399 20.205C93.5198 20.3517 94.3783 20.6057 95.1964 20.9613C95.5744 21.1089 95.9785 21.1784 96.3841 21.1655C96.7897 21.1527 97.1886 21.0578 97.5565 20.8866C97.9244 20.7153 98.2539 20.4713 98.5249 20.1693C98.7959 19.8672 99.003 19.5134 99.1335 19.1291Z" fill="#3C6B96"/>
<path d="M83.8759 16.5684C84.0271 16.1952 84.108 15.7972 84.1145 15.3945C84.1266 14.481 83.8053 13.5944 83.2108 12.9007C82.6163 12.207 81.7894 11.7537 80.8848 11.6258C66.5653 10.0297 52.1242 13.2823 39.8718 20.8633C39.1664 21.4008 38.703 22.1961 38.5832 23.0747C38.4634 23.9533 38.6969 24.8436 39.2326 25.5503C39.7055 26.3041 40.4563 26.8413 41.3224 27.0455C42.1885 27.2497 43.1002 27.1044 43.8599 26.6411C54.9237 19.9445 67.8733 17.0485 80.7356 18.3942C81.3874 18.4814 82.0498 18.3494 82.6183 18.0188C83.1868 17.6883 83.6292 17.178 83.8759 16.5684Z" fill="#3C6B96"/>
</svg>
