<?xml version="1.0" standalone="no"?>
<!DOCTYPE svg PUBLIC "-//W3C//DTD SVG 20010904//EN"
 "http://www.w3.org/TR/2001/REC-SVG-20010904/DTD/svg10.dtd">
<svg version="1.0" xmlns="http://www.w3.org/2000/svg"
 width="80.000000pt" height="80.000000pt" viewBox="0 0 80.000000 80.000000"
 preserveAspectRatio="xMidYMid meet">
<metadata>
Created by potrace 1.14, written by Peter Selinger 2001-2017
</metadata>
<g transform="translate(0.000000,80.000000) scale(0.100000,-0.100000)"
fill="#000000" stroke="none">
<path d="M323 789 c-180 -33 -273 -180 -204 -322 46 -94 145 -138 322 -142 80
-2 124 -7 145 -18 l29 -15 -25 -11 c-14 -6 -52 -21 -85 -35 l-60 -24 2 -61 c1
-35 -3 -61 -8 -61 -24 0 -50 24 -70 63 -37 74 -67 106 -104 113 -33 6 -95 -10
-95 -25 -1 -3 -23 -31 -50 -61 l-50 -55 23 -18 c144 -114 415 -141 542 -53 71
49 105 115 101 197 -5 94 -59 167 -148 199 -43 16 -54 10 -38 -19 18 -35 -14
-26 -60 15 -30 27 -57 41 -103 51 -62 14 -127 60 -127 90 0 29 65 45 194 45
76 -1 94 3 127 23 20 13 49 27 63 31 40 10 39 20 -2 44 -78 47 -216 68 -319
49z"/>
</g>
</svg>
