<svg width="27" height="20" viewBox="0 0 27 20" fill="none" xmlns="http://www.w3.org/2000/svg">
<path d="M2 8.75C1.30964 8.75 0.75 9.30964 0.75 10C0.75 10.6904 1.30964 11.25 2 11.25L2 8.75ZM25.8839 10.8839C26.372 10.3957 26.372 9.60427 25.8839 9.11611L17.9289 1.16116C17.4408 0.673008 16.6493 0.673008 16.1612 1.16116C15.673 1.64932 15.673 2.44078 16.1612 2.92893L23.2322 10L16.1612 17.0711C15.673 17.5592 15.673 18.3507 16.1612 18.8388C16.6493 19.327 17.4408 19.327 17.9289 18.8388L25.8839 10.8839ZM2 11.25L25 11.25L25 8.75L2 8.75L2 11.25Z" fill="#002345" fill-opacity="0.68"/>
</svg>
