<svg width="28" height="24" viewBox="0 0 28 24" fill="none" xmlns="http://www.w3.org/2000/svg">
<path d="M27.5676 0.648558C27.2256 0.230285 26.7133 0 26.125 0C25.8052 0 25.4664 0.0672911 25.1182 0.200378L1.41679 9.24793C0.158979 9.72794 -0.0104235 10.4483 0.000471191 10.8349C0.0113659 11.2216 0.221357 11.9312 1.50437 12.3395C1.51206 12.3418 1.51975 12.3442 1.52745 12.3463L6.44375 13.7532L9.1025 21.3561C9.46502 22.3926 10.2787 23.0364 11.2263 23.0364C11.8238 23.0364 12.4115 22.786 12.9259 22.3127L15.9668 19.5127L20.3775 23.0642C20.3779 23.0646 20.3786 23.0648 20.379 23.0653L20.4209 23.099C20.4247 23.102 20.4288 23.1052 20.4326 23.1082C20.9229 23.4884 21.458 23.6892 21.9807 23.6895H21.9809C23.0023 23.6895 23.8155 22.9334 24.0524 21.7637L27.9359 2.58804C28.0918 1.81836 27.9611 1.12964 27.5676 0.648558ZM8.08843 13.486L17.5735 8.64039L11.6675 14.916C11.5707 15.0187 11.5021 15.1446 11.4684 15.2815L10.3295 19.8945L8.08843 13.486ZM11.8144 21.1057C11.7751 21.1418 11.7356 21.1741 11.6961 21.2037L12.7527 16.9245L14.6746 18.4722L11.8144 21.1057ZM26.328 2.26226L22.4445 21.4381C22.4071 21.6216 22.2877 22.0486 21.9807 22.0486C21.8291 22.0486 21.6385 21.966 21.4435 21.8158L16.4456 17.7916C16.4449 17.7909 16.4441 17.7903 16.4432 17.7898L13.4694 15.3951L22.0102 6.31981C22.2837 6.02928 22.3084 5.58431 22.069 5.26515C21.8293 4.946 21.395 4.8456 21.0397 5.02718L6.99234 12.2036L2.00916 10.7779L25.7033 1.73312C25.9035 1.65664 26.0432 1.64062 26.125 1.64062C26.1752 1.64062 26.2645 1.6466 26.2976 1.6874C26.3412 1.7406 26.3967 1.92196 26.328 2.26226Z" fill="#36B7FF"/>
</svg>
