<svg width="27" height="29" viewBox="0 0 27 29" fill="none" xmlns="http://www.w3.org/2000/svg">
<path d="M25.8111 16.4837C26.6598 9.33958 25.4034 4.82934 23.137 2.78936L23.1382 2.78818C19.4802 -0.695551 7.12653 -1.21118 2.75023 2.94464C0.784931 4.97751 0.0926899 7.96102 0.0168278 11.6546C-0.0590342 15.3493 -0.149121 22.2705 6.30034 24.1481H6.30627L6.30034 27.0154C6.30034 27.0154 6.25648 28.1771 6.99851 28.4106C7.84722 28.6856 8.23127 28.1463 10.871 24.9932C15.2853 25.3761 18.6753 24.499 19.0606 24.3709C19.952 24.0722 24.9956 23.4049 25.8111 16.4837ZM11.3061 22.9758C11.3061 22.9758 8.51219 26.4595 7.64334 27.3639C7.35885 27.6579 7.04711 27.6306 7.05185 27.0474C7.05185 26.6646 7.07319 22.2871 7.07319 22.2871C1.60519 20.7201 1.9276 14.8265 1.98687 11.7435C2.04614 8.65919 2.61036 6.13322 4.27459 4.43225C8.11392 0.832359 18.9444 1.63721 21.7039 4.23074C25.0774 7.22137 23.8766 15.6705 23.8837 15.9585C23.1903 21.7359 19.1033 22.1022 18.3517 22.3523C18.0305 22.459 15.0494 23.2259 11.3061 22.9758Z" fill="#36B7FF" fill-opacity="0.6"/>
<path d="M12.8518 5.10913C12.3954 5.10913 12.3954 5.82034 12.8518 5.82626C16.3924 5.85353 19.3083 8.32142 19.3403 12.8482C19.3403 13.3259 20.0397 13.32 20.0338 12.8423H20.0326C19.9946 7.96463 16.8108 5.13639 12.8518 5.10913Z" fill="#36B7FF" fill-opacity="0.6"/>
<path d="M17.509 12.0978C17.4983 12.5696 18.1965 12.5921 18.2024 12.1144C18.2605 9.42489 16.6022 7.20948 13.4859 6.97597C13.0295 6.94278 12.9821 7.65991 13.4373 7.6931C16.1399 7.89817 17.5635 9.74256 17.509 12.0978Z" fill="#36B7FF" fill-opacity="0.6"/>
<path d="M16.7623 15.1574C16.1767 14.8183 15.5805 15.0293 15.3339 15.3624L14.8183 16.0298C14.5564 16.3688 14.0668 16.3237 14.0668 16.3237C10.4942 15.379 9.53879 11.6404 9.53879 11.6404C9.53879 11.6404 9.49493 11.1343 9.82208 10.8629L10.4669 10.3294C10.7893 10.0734 10.9932 9.45703 10.6649 8.85132C9.78771 7.26651 9.19859 6.72007 8.8987 6.30046C8.5834 5.90574 8.10926 5.81684 7.61616 6.08354H7.60549C6.58016 6.68333 5.45764 7.80585 5.8168 8.96156C6.42963 10.1801 7.5557 14.0645 11.1449 16.9994C12.8317 18.3874 15.5011 19.8098 16.6343 20.1382L16.6449 20.1548C17.7615 20.527 18.8473 19.3606 19.4269 18.3044V18.2961C19.6842 17.7853 19.5988 17.3016 19.2231 16.9852C18.5569 16.3356 17.5517 15.6185 16.7623 15.1574Z" fill="#36B7FF" fill-opacity="0.6"/>
<path d="M13.9743 9.62182C15.1134 9.6882 15.6658 10.2832 15.725 11.5053C15.7464 11.983 16.4398 11.9498 16.4185 11.4721C16.3426 9.87667 15.5105 8.98766 14.0122 8.90469C13.5558 8.87743 13.5132 9.59456 13.9743 9.62182Z" fill="#36B7FF" fill-opacity="0.6"/>
</svg>
