<svg width="29" height="29" viewBox="0 0 29 29" fill="none" xmlns="http://www.w3.org/2000/svg">
<path d="M24.4076 4.04069C21.8018 1.43487 18.338 0 14.6526 0C14.6524 0 14.6515 0 14.6513 0C12.8286 0.000217043 11.0523 0.353129 9.37214 1.04919C7.69179 1.74524 6.18638 2.75167 4.89736 4.04069C2.29176 6.64629 0.856889 10.1107 0.856889 13.7957C0.856889 15.9933 1.38713 18.1771 2.39182 20.1229L0.0729297 26.7475C-0.0905037 27.2148 0.0251803 27.7227 0.375488 28.0728C0.620529 28.3181 0.943056 28.4483 1.2747 28.4483C1.41686 28.4483 1.56054 28.4244 1.70075 28.3754L8.32534 26.0567C10.2711 27.0614 12.455 27.5916 14.6526 27.5916C18.3375 27.5916 21.8018 26.1565 24.4076 23.5509C27.0132 20.9453 28.4483 17.4809 28.4483 13.7959C28.4483 10.1107 27.0134 6.64629 24.4076 4.04069ZM23.2277 22.3711C20.9373 24.6617 17.8917 25.923 14.6526 25.923C12.671 25.923 10.7024 25.4329 8.95954 24.5053C8.64353 24.3373 8.27 24.3084 7.93466 24.4258L1.91606 26.5322L4.02268 20.5136C4.1401 20.1778 4.11102 19.8043 3.94303 19.4885C3.0156 17.7461 2.5253 15.7775 2.5253 13.7957C2.5253 10.5565 3.78675 7.51099 6.07721 5.22054C8.36745 2.9303 11.4126 1.66884 14.6515 1.66841H14.6526C17.892 1.66841 20.9373 2.92987 23.2277 5.22054C25.5184 7.51099 26.7799 10.5563 26.7799 13.7957C26.7799 17.0351 25.5184 20.0806 23.2277 22.3711Z" fill="#36B7FF" fill-opacity="0.6"/>
<path d="M19.7797 15.0282C19.1451 14.3936 18.1124 14.3936 17.4777 15.0282L16.7836 15.7223C15.0601 14.7832 13.6654 13.3884 12.726 11.6649L13.4201 10.9708C14.055 10.3362 14.055 9.30348 13.4201 8.66884L11.5496 6.79836C10.915 6.16373 9.8823 6.16373 9.24767 6.79836L7.75137 8.29466C6.89427 9.15176 6.85151 10.6253 7.63091 12.4439C8.30765 14.0229 9.5461 15.7583 11.1181 17.3304C12.6902 18.9024 14.4257 20.1409 16.0047 20.8176C16.8687 21.1879 17.6546 21.3726 18.3337 21.3726C19.0841 21.3726 19.7039 21.1471 20.1539 20.6972L21.6502 19.2006V19.2009C21.9577 18.8933 22.127 18.4846 22.127 18.0499C22.127 17.6149 21.9577 17.2062 21.6502 16.8989L19.7797 15.0282ZM18.974 19.5173C18.7294 19.7619 17.9771 19.8476 16.6621 19.2842C15.2734 18.6891 13.7235 17.5761 12.298 16.1505C10.8725 14.725 9.75967 13.1753 9.16454 11.7867C8.60088 10.4716 8.68661 9.71911 8.93122 9.47451L10.3989 8.00686L12.2116 9.81982L11.3428 10.6889C10.9499 11.0817 10.8551 11.6775 11.1071 12.1715C12.2494 14.4114 14.0372 16.1992 16.277 17.3415C16.7713 17.5934 17.367 17.4988 17.7599 17.1057L18.6287 16.2369L20.4417 18.0499L18.974 19.5173Z" fill="#36B7FF" fill-opacity="0.6"/>
</svg>
